<svg width="16" height="17" viewBox="0 0 16 17" fill="none" xmlns="http://www.w3.org/2000/svg">
<path d="M7.99976 1.41211C7.99976 1.41211 8.37972 4.9586 9.85973 6.43861C11.3397 7.91862 14.8862 8.29858 14.8862 8.29858C14.8862 8.29858 11.3397 8.67855 9.85973 10.1586C8.37972 11.6386 7.99976 15.1851 7.99976 15.1851C7.99976 15.1851 7.61979 11.6386 6.13978 10.1586C4.65977 8.67855 1.11328 8.29858 1.11328 8.29858C1.11328 8.29858 4.65977 7.91862 6.13978 6.43861C7.61979 4.9586 7.99976 1.41211 7.99976 1.41211Z" fill="#0D6EFD"/>
<path d="M13.1826 5.58203C13.1826 5.58203 13.0578 4.41676 12.5715 3.93047C12.0852 3.44418 10.9199 3.31934 10.9199 3.31934C10.9199 3.31934 12.0852 3.19449 12.5715 2.7082C13.0578 2.22191 13.1826 1.05664 13.1826 1.05664C13.1826 1.05664 13.3075 2.22191 13.7938 2.7082C14.28 3.19449 15.4453 3.31934 15.4453 3.31934C15.4453 3.31934 14.28 3.44418 13.7938 3.93047C13.3075 4.41676 13.1826 5.58203 13.1826 5.58203Z" fill="#0D6EFD"/>
</svg>
